<?xml version="1.0" encoding="UTF-8"?><svg id="Layer_2" xmlns="http://www.w3.org/2000/svg" viewBox="0 0 301.11 668.46"><defs><style>.cls-1{fill:#eed19c;}.cls-2{fill:#f2a278;}.cls-3{fill:#99b4c4;opacity:.8;}</style></defs><g id="Layer_1-2"><path id="Lemon-Leaf" class="cls-1" d="m48.05,238.4C15.03,195.12,74.95.27,75.64,0c.03.01,129.58,28.36,171.22,88.53,31.33,45.26-26.9,238.13-27.59,238.4-.03-.01-126.84-30.35-171.22-88.53h0Z"/><path id="Spike" class="cls-2" d="m297.73,490.08c-19.16-33.02-174.54-81.38-253.03-62.25-58.73,14.32,51.62,240.62,51.62,240.62,0,0-13.14-281.9,83.39-158.43,21.51,27.51,20.53,37.92,12.68,33.92-12.07-6.14-42.76-37.91-51.28-28.11-11.69,13.45-44.81,60.05-30.92,94.03,4.12,10.09,36.3,13.77,49.46,16.08,92.62,16.25,157.23-102.84,138.07-135.85h0Z"/><path id="Diamond-Star" class="cls-3" d="m147.92,130.73c-.08-.37-.41-.64-.79-.64s-.71.27-.79.64c-4.4,21.05-26.59,122.67-48.77,144.85-22.34,22.34-84.98,44.69-97.08,48.86-.3.1-.5.38-.5.69s.2.59.5.69c12.1,4.18,74.74,26.52,97.08,48.86,21.92,21.92,43.85,121.44,48.61,144.08.09.45.49.77.95.77s.85-.32.95-.77c4.76-22.64,26.69-122.16,48.61-144.08,22.34-22.34,84.98-44.69,97.08-48.86.3-.1.5-.38.5-.69s-.2-.59-.5-.69c-12.1-4.18-74.74-26.52-97.08-48.86-22.18-22.18-44.37-123.8-48.77-144.85h0Z"/></g></svg>