<?xml version="1.0" encoding="UTF-8"?><svg id="Layer_2" xmlns="http://www.w3.org/2000/svg" viewBox="0 0 366.21 611.31"><defs><style>.cls-1{fill:#bd536b;}.cls-2{fill:#475476;}.cls-2,.cls-3{opacity:.8;}.cls-3{fill:#eed19c;}</style></defs><g id="Layer_1-2"><path id="Boomerang-1F" class="cls-1" d="m180.05,434.97c-53.8,10.4-171.07-219.39-138.48-254.56,17.51-18.9,57.7,88.18,127.6,82.15,78.7-6.79,182.66-163,195.19-144.56,20.2,29.71-130.52,306.57-184.31,316.98Z"/><path id="Sputnik" class="cls-3" d="m112.89,406.95c-1.5-47.67,37.68-78.59,76.31-78.37,41.79.24,77.29,33.53,76.52,74.82-.95,51.29-49.7,84.81-95.52,72.49l-8.41,88.59c9.14,4.86,14.62,15.16,12.87,25.94-2.2,13.54-14.98,22.76-28.52,20.56-13.55-2.2-22.76-14.98-20.56-28.52,1.82-11.21,10.88-19.45,21.63-20.72l17.65-87.4c-12.48-4.1-23.53-11.25-32.21-20.57l-73.8,71.79c4.76,11.62,2,25.48-7.87,34.34-12.55,11.27-31.89,10.22-43.16-2.33-11.27-12.55-10.22-31.89,2.33-43.16,10.44-9.37,25.58-10.23,36.86-3.02l81.44-62.53c-7.98-10.18-13.35-22.41-15.12-35.74l-60.73-.66c-3.27,6.97-10.55,11.59-18.69,11.09-10.65-.65-18.76-9.83-18.11-20.47s9.83-18.76,20.47-18.11c8.18.5,14.87,6.03,17.23,13.4,0,0,59.39,8.58,59.39,8.58Z"/><path id="Diamond-Star" class="cls-2" d="m184.54.48c-.06-.28-.31-.48-.59-.48s-.53.2-.59.48c-3.31,15.81-19.97,92.14-36.63,108.8-16.78,16.78-63.83,33.57-72.92,36.7-.22.08-.37.29-.37.52s.15.45.37.52c9.09,3.14,56.14,19.92,72.92,36.7,16.47,16.47,32.94,91.22,36.51,108.22.07.34.37.58.71.58s.64-.24.71-.58c3.58-17.01,20.04-91.75,36.51-108.22,16.78-16.78,63.83-33.57,72.92-36.7.22-.08.37-.29.37-.52s-.15-.45-.37-.52c-9.09-3.14-56.14-19.92-72.92-36.7C204.51,92.62,187.85,16.29,184.54.48h0Z"/></g></svg>