<?xml version="1.0" encoding="UTF-8"?><svg id="Layer_2" xmlns="http://www.w3.org/2000/svg" viewBox="0 0 416.27 626.05"><defs><style>.cls-1{fill:#ecbb35;}.cls-2{fill:#c7714c;}.cls-3{fill:#6e7d3e;opacity:.8;}</style></defs><g id="Layer_1-2"><path id="Antelope" class="cls-1" d="m151.57,400.22c48.75.49,68.36,169.25,73.45,223.87.03.38.37.67.75.66.39-.02.69-.33.69-.72.06-61.44.25-269.33.25-269.33H76.43s.2,211.05.25,270.7c0,.35.28.64.63.65.35.01.65-.25.68-.6,4.88-53.11,24.41-224.73,73.57-225.23Z"/><path id="Paper-Plane" class="cls-3" d="m195.98,162.63L7.36,390.71s130.88-24.58,179.57-17.34c21.28,3.17,71.34,53.26,71.34,53.26l-62.29-264.01h0Z"/><path id="Stick-Star" class="cls-2" d="m193.71,160.33c.52,1.17,1.04,2.35,1.56,3.52-17.58,14.82-115.05,94.55-138.08,114.86-1.65,1.45-2.01,4.83-.12,7.03,1.89,2.21,5.27,2.37,6.96.96,23.4-19.49,116.5-103.13,133.44-117.88.47,1.07,58.51,141.32,71.52,170.23,1.01,2.24,4,3.8,6.54,3.2,1.53-.36,3.26-3.76,2.38-6.33-10.3-30.23-76.16-168.6-76.86-170.21.84-.73,1.68-1.46,2.52-2.19,2.72.89,171.17,60.24,206.59,71.64,2.32.75,5.51-.62,6.04-3.47.54-2.87-1.79-5.23-4.04-6-34.79-11.94-204.53-65.17-204.96-65.32,12.08-11.27,117.23-96.26,140.99-116.84,1.66-1.44,2.99-4.18,1.55-6.68-1.44-2.5-5.09-3.79-6.79-2.39-24.68,20.27-141.31,124.03-141.31,124.03-1.44-.49-2.89-.99-4.33-1.48-7.8-18.2-52.04-126.36-63.63-152.52-.99-2.24-3.24-5.25-6.42-4.3-3.17.95-3.74,4.09-3.18,5.35,11.51,25.62,59.77,132.53,67.25,149.43-21.91-7.52-152.45-53.93-184.24-64.38-2.26-.74-5.82-.17-6.79,2.26-.98,2.45.53,5.52,2.78,6.32,32.18,11.34,184.39,59.17,190.62,61.18h0Z"/></g></svg>