<?xml version="1.0" encoding="UTF-8"?><svg id="Layer_2" xmlns="http://www.w3.org/2000/svg" viewBox="0 0 316.13 520.23"><defs><style>.cls-1{fill:#bd536b;}.cls-2{fill:#73b5b6;}.cls-2,.cls-3{opacity:.8;}.cls-3{fill:#eed19c;}</style></defs><g id="Layer_1-2"><path id="Bat" class="cls-1" d="m269.32,427.88c.03.42-.22.8-.61.94-.39.14-.82-.01-1.05-.36-11.35-17.08-70.67-102.53-123.02-104.27-59.5-1.98-116.27,85.86-129.06,104.79-.25.35-.7.48-1.1.33-.4-.15-.65-.56-.61-.99,3.25-38.1,18.56-241.88,20.82-274.09.02-.26.19-.49.44-.57.25-.08.52,0,.69.2,11.27,14.03,59.95,81.48,104.14,84.17,44.76,2.73,99.45-72.56,107.57-84.1.15-.22.43-.33.69-.25.26.07.45.3.47.57,1.67,22.22,18.36,243.74,20.65,273.64h0Z"/><path id="Fleet-Full" class="cls-3" d="m250.03,492.69c-21.23,37.5-259.58,33.52-249.73,7.14,5.97-15.98,131.5-6.01,160.69-57.56,29.19-51.56-49.65-162.58-33.3-167.41,33.2-9.81,143.57,180.34,122.34,217.83Z"/><path id="Soft-Jet" class="cls-2" d="m313.09,123.51C345.46,33.67,110.38-46.63,49.69,31.89c-46.35,67.54,58.38,240.72,114.89,242.59,32.86,1.09,4.97-96.99,15.57-113.6,10.66-16.7,115.87,9.98,132.94-37.38Z"/></g></svg>