<?xml version="1.0" encoding="UTF-8"?><svg id="Layer_2" xmlns="http://www.w3.org/2000/svg" viewBox="0 0 408.2 622.12"><defs><style>.cls-1{fill:#8dc63f;}.cls-2{fill:#6e7d3e;}.cls-3,.cls-4{opacity:.8;}.cls-4{fill:#f2a278;}</style></defs><g id="Layer_1-2"><ellipse class="cls-2" cx="233.41" cy="280.58" rx="116.18" ry="153.9" transform="translate(-85.99 103.97) rotate(-21.3)"/><path id="Bat" class="cls-4" d="m408.2,620.64c.03.42-.23.8-.64.94-.41.14-.86-.01-1.1-.36-11.85-17.08-73.77-102.53-128.4-104.27-62.1-1.98-121.36,85.86-134.71,104.79-.26.35-.73.48-1.15.33-.42-.15-.68-.56-.64-.99,3.39-38.1,19.38-241.88,21.73-274.09.02-.26.2-.49.46-.57.26-.08.54,0,.72.2,11.76,14.03,62.57,81.48,108.69,84.17,46.72,2.73,103.81-72.56,112.27-84.1.16-.22.45-.33.72-.25.27.07.47.3.49.57,1.75,22.22,19.16,243.74,21.55,273.64h0Z"/><g class="cls-3"><path id="Atom-Burst" class="cls-1" d="m319.1,242.29c4.72-4.09,11.87-3.58,15.96,1.14,4.09,4.72,3.58,11.87-1.14,15.96-4.72,4.09-11.87,3.58-15.96-1.14-4.09-4.72-3.58-11.87,1.14-15.96h0Zm-154.1-17.03c3.54,2.79,4.14,7.92,1.36,11.45-2.79,3.54-7.92,4.14-11.45,1.36-3.54-2.79-4.14-7.92-1.36-11.45,2.79-3.54,7.92-4.14,11.45-1.36Zm-118.24-89.27c-1.9.13-10.75.53-10.85.98-.13.6,9.99,1.04,10.76,1.04,29.23.02,173.35.21,173.35.21.22.81.27.94.63,1.79,0,0-134.26,58.23-137.11,59.6-4.75,2.28-9.3,4.72-9.06,5.13.19.32,2.09-.04,10.03-3.37,2.65-1.11,138.92-57.73,138.92-57.73.69.67.79.77,1.66,1.31,0,0-40.1,52.55-45.71,59.9-.4.53-5.37,7.53-4.89,7.98.35.32,1.59-.61,6.56-5.93.31-.33,48.8-59.8,48.8-59.8.91.26,1.35.33,2.46.51,0,0,.45,63,.77,72.47.36,10.86,1.04,15.41,1.76,15.44,1.28.06,1.49-6.38,2.01-15.01.03-.53.59-72.88.59-72.88,1.33-.32,1.24-.37,2.49-.75,0,0,52.83,64.3,63.32,77.07.82.99,5.94,6.25,6.07,6.18.14-.07-4.58-6.47-5.17-7.26-14.7-19.25-59.23-78.07-59.23-78.07.57-.4.81-.55,1.53-1.13,0,0,50.21,25.15,72.52,35.92,5.52,2.67,11.16,4.95,11.27,4.77.16-.26-5.11-3.24-10.6-6.21-21.57-11.7-70.46-38.09-70.46-38.09.29-.6.34-.8.63-1.58,0,0,100.73-1.73,104.21-1.82,9.07-.24,14.9-1.01,14.93-1.35.04-.46-9.91-.68-14.82-.72-19.84-.16-104.25-.63-104.25-.63-.23-.73-.2-.83-.6-1.63,0,0,40.86-19.12,61.37-29.35,6.93-3.45,11.51-6.63,11.25-7.16-.24-.48-8.19,2.9-12.13,4.63-12.51,5.48-63.28,28.03-63.28,28.03-.65-.56-.79-.69-1.58-1.3,0,0,43.72-57.5,61.03-82.6,1.89-2.74,5.89-9.11,5.46-9.59-.34-.37-5.28,5.76-7.42,8.4-18.38,22.7-63.99,81.58-63.99,81.58-1.08-.21-1.31-.3-2.24-.41,0,0-2.41-68.28-3.05-82.07-.05-1.08-.62-7.11-.98-7.15-.81-.09-.87,6.38-.88,7.28-.14,18.66-.58,81.89-.58,81.89-1.06.16-1.33.22-2.25.42,0,0-47.95-54.72-66.47-76.08-.84-.97-5.85-6.93-6.21-6.67-.37.26,4.04,6.51,4.86,7.55,15.7,19.83,62.9,77.39,62.9,77.39-.53.37-.71.49-1.62,1.22,0,0-123.74-54.41-127.57-55.94-6.21-2.48-8.37-2.35-8.42-2.11-.05.24,1.1,1.68,6.91,4.75,2.74,1.44,126.22,57.13,126.22,57.13-.4.89-.37.89-.61,1.76,0,0-173.25,2.05-173.25,2.05h0Zm-24.14.44c-.14,6.24-5.32,11.2-11.56,11.07-6.24-.14-11.2-5.32-11.07-11.56.14-6.24,5.32-11.2,11.56-11.07,6.24.14,11.2,5.32,11.07,11.56Zm360.57-.29c.1-4.5,3.83-8.07,8.33-7.97,4.5.1,8.07,3.83,7.97,8.33-.1,4.5-3.83,8.07-8.33,7.97-4.5-.1-8.07-3.83-7.97-8.33ZM146.71,29.49c-3.49,2.84-8.63,2.31-11.47-1.19-2.84-3.49-2.31-8.63,1.19-11.47,3.49-2.84,8.63-2.31,11.47,1.19,2.84,3.49,2.31,8.63-1.19,11.47Zm175.14-8.9c-5.12-3.58-6.37-10.64-2.79-15.76,3.58-5.12,10.64-6.37,15.76-2.79s6.37,10.64,2.79,15.76c-3.58,5.12-10.64,6.37-15.76,2.79Z"/></g></g></svg>