<?xml version="1.0" encoding="UTF-8"?><svg id="Layer_2" xmlns="http://www.w3.org/2000/svg" viewBox="0 0 357.8 633.11"><defs><style>.cls-1{fill:#6e7d3e;}.cls-1,.cls-2,.cls-3{opacity:.8;}.cls-2{fill:#99b4c4;}.cls-3{fill:#eed19c;}</style></defs><g id="Layer_1-2"><circle class="cls-3" cx="116.18" cy="302.81" r="116.18"/><path id="Antelope" class="cls-1" d="m162.71,227.88c-58.67-35.68-4.02-180.64,15.2-226.65.14-.32-.13-.79-.6-1.05-.47-.27-.99-.24-1.17.06-28.6,47.57-125.36,208.52-125.36,208.52l181.57,108.8s97.75-163.68,125.38-209.95c.16-.27-.04-.7-.46-.96-.42-.27-.9-.28-1.1-.03-30.56,37.62-133.84,156.47-193.47,121.27Z"/><path id="Diamond-Star" class="cls-2" d="m116.77,341.06c-.06-.28-.31-.48-.59-.48s-.53.2-.59.48c-3.31,15.81-19.97,92.14-36.63,108.8-16.78,16.78-63.83,33.57-72.92,36.7-.22.08-.37.29-.37.52s.15.45.37.52c9.09,3.14,56.14,19.92,72.92,36.7,16.47,16.47,32.94,91.22,36.51,108.22.07.34.37.58.71.58s.64-.24.71-.58c3.58-17.01,20.04-91.75,36.51-108.22,16.78-16.78,63.83-33.57,72.92-36.7.22-.08.37-.29.37-.52s-.15-.45-.37-.52c-9.09-3.14-56.14-19.92-72.92-36.7-16.66-16.66-33.32-92.99-36.63-108.8h0Z"/></g></svg>