<?xml version="1.0" encoding="UTF-8"?><svg id="Layer_2" xmlns="http://www.w3.org/2000/svg" viewBox="0 0 311.81 662.73"><defs><style>.cls-1{fill:#ecbb35;}.cls-2{fill:#99b4c4;}.cls-2,.cls-3{opacity:.8;}.cls-3{fill:#eed19c;}</style></defs><g id="Layer_1-2"><path id="Block-1" class="cls-1" d="m305.54,222.7c-11.05-12.1-232.91-21.36-246.12-4.31-12.01,15.51-16.58,232.17-2.91,241.09,19.03,12.41,238.43,21.36,242.97,3.54,4.1-16.07,21.48-223.43,6.05-240.32h0Zm-43.62,17.94c-8.35-8.93-173.37,10.7-181.13,24.43-7.05,12.48,14.23,168.62,25.28,173.5,15.38,6.79,177.42-11.32,178.73-24.63,1.18-12-9.13-158.58-22.88-173.3h0Z"/><path id="Sputnik" class="cls-3" d="m204.35,112.89c47.67-1.5,78.59,37.68,78.37,76.31-.24,41.79-33.53,77.29-74.82,76.52-51.29-.95-84.81-49.7-72.49-95.52l-88.59-8.41c-4.86,9.14-15.16,14.62-25.94,12.87-13.54-2.2-22.76-14.98-20.56-28.52,2.2-13.55,14.98-22.76,28.52-20.56,11.21,1.82,19.45,10.88,20.72,21.63l87.4,17.65c4.1-12.48,11.25-23.53,20.57-32.21L85.73,58.84c-11.62,4.76-25.48,2-34.34-7.87-11.27-12.55-10.22-31.89,2.33-43.16,12.55-11.27,31.89-10.22,43.16,2.33,9.37,10.44,10.23,25.58,3.02,36.86l62.53,81.44c10.18-7.98,22.41-13.35,35.74-15.12l.66-60.73c-6.97-3.27-11.59-10.55-11.09-18.69.65-10.65,9.83-18.76,20.47-18.11s18.76,9.83,18.11,20.47c-.5,8.18-6.03,14.87-13.4,17.23,0,0-8.58,59.39-8.58,59.39Z"/><path id="Paper-Plane" class="cls-2" d="m246.49,391.98L0,555.82s132.4,14.3,176.91,35.3c19.45,9.18,52.9,71.61,52.9,71.61l16.67-270.75h0Z"/></g></svg>