<?xml version="1.0" encoding="UTF-8"?><svg id="Layer_2" xmlns="http://www.w3.org/2000/svg" viewBox="0 0 426.25 688.03"><defs><style>.cls-1{fill:#ecbb35;}.cls-2{fill:#f2a278;}.cls-3,.cls-4{opacity:.8;}.cls-4{fill:#475476;}</style></defs><g id="Layer_1-2"><path id="Cats-Eye" class="cls-1" d="m223.96,0s70.93,229.34,70.93,344.02-70.93,344.02-70.93,344.02c0,0-70.93-229.34-70.93-344.02S223.96,0,223.96,0h0Z"/><path id="Boomerang-1F" class="cls-4" d="m426.15,569.08c4.47,44.35-146.65,128.1-167.76,99.76-11.34-15.23,58.5-42.48,57.46-99.72-1.17-64.45-96.55-157.11-84.3-166.37,19.74-14.93,190.13,121.99,194.6,166.34Z"/><g class="cls-3"><path id="Kidney-Bean" class="cls-2" d="m272.65,194.6c29.05-4.37,72.15,42.83,72.84,86.78,1.42,90.68-195.99,138.46-284,87.9-166.18-95.47,50.19-286.45,113.29-188.79,62.41,96.59,52.98,20.87,97.87,14.11h0Z"/></g></g></svg>