<?xml version="1.0" encoding="UTF-8"?><svg id="Layer_2" xmlns="http://www.w3.org/2000/svg" viewBox="0 0 360.55 591.22"><defs><style>.cls-1{fill:#73b5b6;}.cls-2{fill:#bd536b;}.cls-3,.cls-4{opacity:.8;}.cls-4{fill:#eed19c;}</style></defs><g id="Layer_1-2"><path id="Wave" class="cls-2" d="m331.3,148.33c.32-.91,1.24-1.47,2.2-1.34.96.13,1.7.91,1.76,1.87,3.33,51.28,17.08,287.1-7.38,350.44-25.43,65.85-243.68-111.44-244.81-145.86-.72-22.08,68.27,12.98,139.76-28.59,52.28-30.4,96.35-143.18,108.46-176.53h0Z"/><g class="cls-3"><path id="Star-Drift" class="cls-1" d="m138.76,274.52s32.64-26.5,39.29-31.75c75.75-59.64,131.78-101.73,158.34-124.07,2.55-2.14,3.46-6.95,1-9.96-2.46-3.01-7.31-3.06-9.9-.96-26.97,21.84-120.42,104.79-151.89,131.98-12.19,10.53-31.08,26.39-36.92,31.17.48-1.26,55.37-140.84,72.75-184.42,10.28-25.78,26.97-62.69,31.55-77.04,1.01-3.18-.47-7.74-4.1-9.1-3.63-1.36-7.74,1.1-9.07,4.16-5.99,13.83-17.67,52.62-26.86,78.8-15.69,44.66-66.5,187.12-67.26,189.17-2.67-8.71-17.54-58.94-25.98-88.51-9.7-33.99-25.38-95.46-32.23-115.46-1.08-3.15-5.13-5.76-8.84-4.56-3.7,1.2-5.5,5.7-4.58,8.9,5.85,20.45,28.12,80.53,39.67,113.82,9.94,28.62,26.94,77.6,29.66,85.91-4.5-1.6-12.47-4.54-18.59-7.1-20.66-8.63-86.3-37.96-105.36-44.7-3.12-1.11-7.69.55-9.05,4.21-1.35,3.67,1.05,7.89,4.15,9.07,18.89,7.23,87.74,27.44,109.19,34.32,6.58,2.11,14.81,5.15,19.54,6.96-10.46,8.6-31.58,25.09-45.38,35.26-12.18,8.98-30.98,19.81-37.38,25.76-2.44,2.27-3.46,6.95-1,9.96,2.46,3.01,7.21,2.92,9.9.96,7.05-5.15,21.3-21.57,32.42-31.85,12.31-11.37,31.65-28.3,41.41-36.38-3.64,9.81-32.6,81.01-43.54,107.4-7.09,17.1-19.13,40.94-22.14,50.95-.96,3.2.46,7.74,4.1,9.1,3.63,1.36,7.69-1.12,9.07-4.16,4.31-9.52,10.9-35.4,16.8-52.95,9.13-27.18,34.22-100.16,38-110.16,3.52,11.14,13.79,47.25,19.9,69.87,5.9,21.88,12.48,54.15,16.74,65.89,1.13,3.13,5.13,5.76,8.83,4.56s5.45-5.69,4.58-8.9c-3.26-12.07-16.42-42.21-24.14-63.5-8.09-22.31-24.41-70.38-24.41-70.38,1.19.46,2.38.91,3.57,1.37,13.18,5.03,26.68,10.27,39.95,15.56,33.2,13.23,131.19,53.89,159.24,63.83,3.12,1.11,7.69-.55,9.05-4.21,1.35-3.67-1.05-7.89-4.15-9.07-27.79-10.63-128.75-43.24-162.6-54.7-13.54-4.58-27.21-9.35-40.5-14.07-.94-.33-1.88-.67-2.81-1h0Z"/></g><path id="Paper-Plane" class="cls-4" d="m64.64,585.55l295.92,5.67s-100.7-87.14-125.33-129.75c-10.76-18.62-2.72-88.99-2.72-88.99l-167.87,213.08h0Z"/></g></svg>