<?xml version="1.0" encoding="UTF-8"?><svg id="Layer_2" xmlns="http://www.w3.org/2000/svg" viewBox="0 0 341.66 623.32"><defs><style>.cls-1{fill:#99b4c4;}.cls-2{fill:#6e7d3e;}.cls-3,.cls-4{opacity:.8;}.cls-4{fill:#f2a278;}</style></defs><g id="Layer_1-2"><path id="Wave" class="cls-1" d="m340.55,396.59c.74.25,1.19.98,1.09,1.74-.11.76-.74,1.34-1.52,1.39-41.66,2.63-233.26,13.49-284.72-5.83-53.5-20.09,90.54-192.51,118.51-193.4,17.94-.57-10.54,53.93,23.23,110.41,24.7,41.3,116.33,76.12,143.43,85.69h0Z"/><g class="cls-3"><path id="Atomic-Sun" class="cls-2" d="m146.93,36.74c-9.32-.95-16.56-8.91-16.46-18.51C130.58,8.06,138.87-.1,148.98,0c10.11.1,18.24,8.44,18.14,18.6-.1,9.7-7.67,17.59-17.15,18.19l3.96,84.55c3.62.72,7.07,2.16,10.14,4.22l60.64-54.64c-4.36-5.51-3.87-13.27,1.16-18.42,5.44-5.57,14.36-5.66,19.91-.19,5.55,5.47,5.63,14.43.19,20.01-10.25,9.33-19.86.38-19.86.38l-54.28,60.67c2.05,3.08,3.48,6.54,4.2,10.18l82.51,4.05c.82-9.46,8.75-16.87,18.37-16.84,10.14.04,18.34,8.34,18.3,18.53-.04,10.19-8.3,18.43-18.44,18.39-9.58-.04-17.43-7.46-18.23-16.87l-82.51,3.75c-.72,3.64-2.15,7.1-4.2,10.18l53.26,59.64c5.6-4.95,14.09-4.68,19.3.91,5.25,5.63,4.96,14.48-.65,19.75-5.6,5.27-14.41,4.98-19.66-.65-4.88-5.24-5.12-13.02-.6-18.36l-59.42-53.5c-3.07,2.06-6.52,3.49-10.14,4.22l-3.69,81.45c9.22,1.06,16.35,8.98,16.25,18.51-.1,10.18-8.41,18.37-18.54,18.26-10.13-.1-18.28-8.45-18.17-18.63.1-9.7,7.65-17.59,17.13-18.22l-3.95-81.38c-3.62-.72-7.07-2.16-10.14-4.22l-60.51,54.56c5.15,5.38,4.93,13.67-.29,19.06-5.33,5.51-14.1,5.63-19.58.27-5.48-5.35-5.6-14.17-.27-19.68,5.07-5.24,12.97-5.7,18.47-1.1l54.42-60.92c-2.05-3.08-3.48-6.54-4.2-10.18l-84.18-3.99c-.84,9.44-8.76,16.83-18.37,16.79C8.16,167.32-.04,159.01,0,148.83c.04-10.19,8.3-18.43,18.44-18.39,9.65.04,17.55,7.56,18.25,17.08l84.15-3.98c.72-3.64,2.15-7.1,4.2-10.18l-55.69-61.88c-5.26,5.01-13.63,5.01-19.02-.26-5.5-5.38-5.62-14.23-.26-19.76,5.35-5.53,14.17-5.64,19.66-.26,5.28,5.17,5.71,13.38,1.1,18.74l61.97,55.64c3.07-2.06,6.52-3.49,10.14-4.22,0,0,3.98-84.61,3.98-84.61Z"/></g><path id="Boomerang-1F" class="cls-4" d="m290.42,517.83c4.47,44.35-146.65,128.1-167.76,99.76-11.34-15.23,58.5-42.48,57.46-99.72-1.17-64.45-96.55-157.11-84.3-166.37,19.74-14.93,190.13,121.99,194.6,166.34Z"/></g></svg>