<?xml version="1.0" encoding="UTF-8"?><svg id="Layer_2" xmlns="http://www.w3.org/2000/svg" viewBox="0 0 307.16 698.45"><defs><style>.cls-1{fill:#73b5b6;}.cls-2{fill:#e2bec0;}.cls-2,.cls-3{opacity:0.8;}.cls-3{fill:#c7714c;}</style></defs><g id="Layer_1-2"><path id="Soft-Jet" class="cls-1" d="m274.92,339.29C307.3,249.46,72.22,169.15,11.52,247.68c-46.35,67.54,58.38,240.72,114.89,242.59,32.86,1.09,4.97-96.99,15.57-113.6,10.66-16.7,115.87,9.98,132.94-37.38Z"/><path id="Rocket-Slide" class="cls-3" d="m89.46.57c.02-.29.24-.52.52-.56.28-.04.55.12.65.39,10.67,27.88,108.21,282.85,125,326.73.13.35-.01.74-.34.92-.32.17-.72.07-.93-.25-15.07-22.78-72.61-104.74-110.41-88.94-21.1,8.82-34.61,57.57-40.05,81.47-.09.43-.5.7-.92.64s-.72-.46-.68-.89C67.3,261.19,87.12,28.03,89.46.57h0Z"/><path id="Sputnik" class="cls-2" d="m253.67,485.52c2.36-7.37,9.05-12.9,17.23-13.4,10.65-.65,19.82,7.46,20.47,18.11s-7.46,19.82-18.11,20.47c-8.14.5-15.42-4.13-18.69-11.09l-60.73.66c-1.77,13.33-7.14,25.56-15.12,35.74l81.44,62.53c11.28-7.2,26.42-6.35,36.86,3.02,12.55,11.27,13.6,30.61,2.33,43.16-11.27,12.55-30.61,13.6-43.16,2.33-9.87-8.86-12.63-22.72-7.87-34.34l-73.8-71.79c-8.68,9.31-19.73,16.47-32.21,20.57l17.65,87.4c10.75,1.27,19.81,9.51,21.63,20.72,2.2,13.55-7.02,26.33-20.56,28.52-13.55,2.2-26.33-7.02-28.52-20.56-1.75-10.78,3.73-21.07,12.87-25.94l-8.41-88.59c-45.81,12.32-94.56-21.2-95.52-72.49-.77-41.29,34.73-74.57,76.52-74.82,38.63-.23,77.81,30.7,76.31,78.37,0,0,59.39-8.58,59.39-8.58Z"/></g></svg>