<?xml version="1.0" encoding="UTF-8"?><svg id="Layer_2" xmlns="http://www.w3.org/2000/svg" viewBox="0 0 271.45 577.42"><defs><style>.cls-1{fill:#73b5b6;}.cls-2{fill:#c7714c;}.cls-3{fill:#6e7d3e;}.cls-4{opacity:.8;}</style></defs><g id="Layer_1-2"><path id="Mouse" class="cls-2" d="m48.9,55.21c0-.53,1.02-.97,2.36-1.02,1.33-.05,2.54.32,2.77.84,30.86,41.69,189.81,247.99,189.83,308.09.01,31.24-160.39,86.32-194.89,86.32,0,0-.07-339.39-.08-394.23h0Z"/><g class="cls-4"><path id="Egg-Moon-Full" class="cls-1" d="m122.61,1.74c0-.73-.45-1.38-1.13-1.63-.68-.25-1.44-.05-1.91.5-44.26,51.93-47.04,285.62,46.93,290.74,89.57.36,95.47-229.74,46.3-290.26-.47-.58-1.25-.79-1.95-.53-.7.26-1.16.93-1.14,1.68,1.06,68.06-14.98,124.88-43.21,124.19C126.51,119.04,122.91,23.38,122.61,1.74h0Z"/></g><g class="cls-4"><path id="Fleet-Full" class="cls-3" d="m135.36,358.8c43.9,0,160.02,213.3,131.7,217.81-17.16,2.73-71.34-113.56-131.7-113.56S16.15,588.68,3.66,576.61c-25.36-24.51,87.8-217.81,131.7-217.81h0Z"/></g></g></svg>